<svg xmlns="http://www.w3.org/2000/svg" width="12.202" height="12.202" viewBox="0 0 12.202 12.202">
  <g id="about" transform="translate(0 0)">
    <path id="Path_35266" data-name="Path 35266" d="M8.576,6.542H9.593V7.559H8.576Zm.508,5.084a.51.51,0,0,0,.508-.508V9.084a.508.508,0,0,0-1.017,0v2.034A.51.51,0,0,0,9.084,11.626ZM9.084,4a5.084,5.084,0,1,0,5.084,5.084A5.086,5.086,0,0,0,9.084,4Zm0,9.152a4.067,4.067,0,1,1,4.067-4.067A4.073,4.073,0,0,1,9.084,13.152Z" transform="translate(-2.983 -2.983)"/>
    <path id="Path_35267" data-name="Path 35267" d="M0,0H12.2V12.2H0Z" transform="translate(0 0)" fill="none"/>
  </g>
</svg>
