<svg id="address" xmlns="http://www.w3.org/2000/svg" width="8.708" height="12.385" viewBox="0 0 8.708 12.385">
  <g id="Group_775" data-name="Group 775">
    <g id="Group_774" data-name="Group 774" transform="translate(0)">
      <path id="Path_467" data-name="Path 467" d="M80.354,0a4.355,4.355,0,0,1,3.7,6.644L80.6,12.213a.363.363,0,0,1-.308.172h0a.363.363,0,0,1-.308-.176L76.614,6.585A4.355,4.355,0,0,1,80.354,0ZM77.237,6.212,80.3,11.325l3.142-5.064a3.631,3.631,0,1,0-6.2-.049Z" transform="translate(-76)"/>
    </g>
  </g>
  <g id="Group_777" data-name="Group 777" transform="translate(2.177 2.177)">
    <g id="Group_776" data-name="Group 776" transform="translate(0)">
      <path id="Path_468" data-name="Path 468" d="M168.177,90A2.177,2.177,0,1,1,166,92.177,2.179,2.179,0,0,1,168.177,90Zm0,3.633a1.456,1.456,0,1,0-1.454-1.456A1.457,1.457,0,0,0,168.177,93.633Z" transform="translate(-166 -90)"/>
    </g>
  </g>
</svg>
