<svg id="ar" xmlns="http://www.w3.org/2000/svg" width="24" height="24" viewBox="0 0 24 24">
  <path id="Path_35300" data-name="Path 35300" d="M6.615,12.5H20.978a3.113,3.113,0,0,1,3.115,3.1v8.585a3.113,3.113,0,0,1-3.115,3.1H6.615a3.113,3.113,0,0,1-3.115-3.1V15.6A3.113,3.113,0,0,1,6.615,12.5ZM20.978,25.377a1.193,1.193,0,0,0,1.194-1.189V15.6a1.193,1.193,0,0,0-1.194-1.189H6.615A1.193,1.193,0,0,0,5.422,15.6v8.585a1.193,1.193,0,0,0,1.194,1.189Z" transform="translate(-1.797 -6.442)" fill="#7f9775"/>
  <path id="Path_35301" data-name="Path 35301" d="M5.414,12.395H3.5V10.206A3.2,3.2,0,0,1,6.1,7.067l.017,0L17.881,5.052a3.192,3.192,0,0,1,3.778,3.141v1.34H19.745V8.193a1.277,1.277,0,0,0-1.516-1.258l-.017,0L6.446,8.949a1.281,1.281,0,0,0-1.031,1.257Z" transform="translate(-1.797 -2.597)" fill="#7f9775"/>
  <path id="Path_35302" data-name="Path 35302" d="M32.931,26.862a1.431,1.431,0,1,1,1.431-1.431A1.429,1.429,0,0,1,32.931,26.862Z" transform="translate(-15.903 -12.011)" fill="#7f9775"/>
  <path id="Path_35303" data-name="Path 35303" d="M0,0H24V24H0Z" fill="none"/>
</svg>
