<svg id="call" xmlns="http://www.w3.org/2000/svg" width="17.8" height="17.511" viewBox="0 0 17.8 17.511">
  <g id="Group_779" data-name="Group 779" transform="translate(0 1.507)">
    <path id="Path_478" data-name="Path 478" d="M16.271,18.551a8.839,8.839,0,0,0-2.64-2.282c-.47-.268-1.037-.3-1.305.18a10.712,10.712,0,0,1-.846.926,1.577,1.577,0,0,1-2.244-.223l-1.7-1.7-1.7-1.7A1.577,1.577,0,0,1,5.605,11.5a10.712,10.712,0,0,1,.926-.846c.477-.268.448-.835.18-1.305a8.839,8.839,0,0,0-2.282-2.64,1.167,1.167,0,0,0-1.371.206l-.753.753c-2.387,2.387-1.212,5.082,1.175,7.469l2.182,2.182L7.844,19.5c2.387,2.387,5.082,3.562,7.469,1.175l.753-.753A1.168,1.168,0,0,0,16.271,18.551Z" transform="translate(-0.702 -6.275)" fill="#52c306"/>
    <path id="Path_479" data-name="Path 479" d="M11.765,21.571a4.243,4.243,0,0,1-.957-.113A8.481,8.481,0,0,1,6.931,19L2.568,14.638C-.4,11.674-.8,8.946,1.393,6.75L2.146,6a1.456,1.456,0,0,1,1.72-.259,8.954,8.954,0,0,1,2.4,2.752A1.467,1.467,0,0,1,6.458,9.6.987.987,0,0,1,6,10.191a9.836,9.836,0,0,0-.851.77,1.284,1.284,0,0,0,.187,1.867l3.408,3.408a1.285,1.285,0,0,0,1.868.187,10.054,10.054,0,0,0,.769-.851.986.986,0,0,1,.592-.459,1.461,1.461,0,0,1,1.1.192,8.967,8.967,0,0,1,2.756,2.4h0a1.456,1.456,0,0,1-.259,1.72l-.753.753A4.264,4.264,0,0,1,11.765,21.571ZM3.18,6.161a.867.867,0,0,0-.614.256l-.753.753C-.136,9.119.26,11.49,2.988,14.219l4.363,4.363c2.729,2.729,5.1,3.124,7.049,1.175L15.153,19a.866.866,0,0,0,.154-1.022h0a8.248,8.248,0,0,0-2.528-2.165.915.915,0,0,0-.648-.134.4.4,0,0,0-.248.2l-.031.045a8.771,8.771,0,0,1-.908.981,1.872,1.872,0,0,1-2.62-.258L4.916,13.247a1.871,1.871,0,0,1-.258-2.62,8.778,8.778,0,0,1,.981-.908l.045-.031a.4.4,0,0,0,.2-.248.912.912,0,0,0-.136-.652A8.616,8.616,0,0,0,3.588,6.263.877.877,0,0,0,3.18,6.161Z" transform="translate(0 -5.567)" fill="#388f04"/>
  </g>
  <path id="Path_480" data-name="Path 480" d="M31.558,43.585h-.031a6.194,6.194,0,0,1-3.441-1.567.3.3,0,0,1,.416-.423,5.689,5.689,0,0,0,3.086,1.4.3.3,0,0,1-.03.592Z" transform="translate(-19.691 -29.338)" fill="#388f04"/>
  <path id="Path_481" data-name="Path 481" d="M13.073,23.365a.3.3,0,0,1-.188-.068A5.667,5.667,0,0,1,11,19.835a.3.3,0,0,1,.591-.061,5.151,5.151,0,0,0,1.674,3.065.3.3,0,0,1-.19.526Z" transform="translate(-7.734 -13.865)" fill="#388f04"/>
  <g id="Group_780" data-name="Group 780" transform="translate(7.821)">
    <path id="Path_482" data-name="Path 482" d="M26.659.487a.3.3,0,0,0,0,.593,9.1,9.1,0,0,1,9.089,9.089.3.3,0,0,0,.593,0A9.693,9.693,0,0,0,26.659.487Z" transform="translate(-26.362 -0.487)" fill="#efce4a"/>
    <path id="Path_483" data-name="Path 483" d="M26.659,7.517a.3.3,0,0,0,0,.593,7.011,7.011,0,0,1,7,7,.3.3,0,1,0,.593,0A7.6,7.6,0,0,0,26.659,7.517Z" transform="translate(-26.362 -5.431)" fill="#efce4a"/>
    <path id="Path_484" data-name="Path 484" d="M26.659,14.547a.3.3,0,0,0,0,.593,4.923,4.923,0,0,1,4.918,4.918.3.3,0,1,0,.593,0A5.517,5.517,0,0,0,26.659,14.547Z" transform="translate(-26.362 -10.376)" fill="#efce4a"/>
  </g>
</svg>
