<svg id="edit" xmlns="http://www.w3.org/2000/svg" width="12.223" height="12.223" viewBox="0 0 12.223 12.223">
  <path id="Path_35305" data-name="Path 35305" d="M12.771,4.154a.507.507,0,0,1,.718,0l2.037,2.037a.507.507,0,0,1,0,.718L8.905,13.53a.5.5,0,0,1-.359.15H6.509A.511.511,0,0,1,6,13.171V11.134a.5.5,0,0,1,.15-.359l5.093-5.093ZM11.6,6.761,7.019,11.345v1.316H8.335l4.583-4.583Zm2.037.6.807-.807L13.13,5.234l-.807.807Z" transform="translate(-4.472 -2.985)" fill="#fff"/>
  <path id="Path_35306" data-name="Path 35306" d="M0,0H12.223V12.223H0Z" fill="none"/>
</svg>
