<svg id="inv" xmlns="http://www.w3.org/2000/svg" width="24" height="24" viewBox="0 0 24 24">
  <path id="Path_35295" data-name="Path 35295" d="M10.624,13.458H8.731a.946.946,0,0,0,0,1.893h1.893a.946.946,0,0,0,0-1.893Zm-.946-1.893h3.785a.946.946,0,0,0,0-1.893H9.678a.946.946,0,1,0,0,1.893Zm.946,5.678H8.731a.946.946,0,1,0,0,1.893h1.893a.946.946,0,0,0,0-1.893Zm11.355-3.785H19.141V4.941a.95.95,0,0,0-.473-.823.94.94,0,0,0-.946,0L14.882,5.745,12.043,4.118a.94.94,0,0,0-.946,0L8.258,5.745,5.419,4.118a.94.94,0,0,0-.946,0A.95.95,0,0,0,4,4.941V20.082a2.841,2.841,0,0,0,2.839,2.839H20.087a2.841,2.841,0,0,0,2.839-2.839V14.4A.949.949,0,0,0,21.979,13.458ZM6.839,21.028a.949.949,0,0,1-.946-.946V6.578L7.785,7.657a1.014,1.014,0,0,0,.946,0L11.57,6.029l2.839,1.628a1.014,1.014,0,0,0,.946,0l1.893-1.079v13.5a2.933,2.933,0,0,0,.17.946Zm14.194-.946a.946.946,0,0,1-1.893,0V15.35h1.893ZM14.939,17.4a.575.575,0,0,0-.17-.085.612.612,0,0,0-.18-.057.945.945,0,0,0-.852.255.986.986,0,0,0-.274.672.933.933,0,0,0,.066.36,1.162,1.162,0,0,0,.208.312,1.031,1.031,0,0,0,.312.2.9.9,0,0,0,.719,0,1.031,1.031,0,0,0,.312-.2.965.965,0,0,0,.274-.672.986.986,0,0,0-.274-.672A1.491,1.491,0,0,0,14.939,17.4Zm.132-3.672a.95.95,0,0,0-.847-.251.963.963,0,0,0-.686.563.948.948,0,0,0,.09.885.934.934,0,0,0,.781.421.937.937,0,0,0,.871-1.306A.883.883,0,0,0,15.072,13.732Z" transform="translate(-1.463 -1.458)" fill="#679ec4"/>
  <path id="Path_35296" data-name="Path 35296" d="M0,0H24V24H0Z" fill="none"/>
</svg>
