<svg xmlns="http://www.w3.org/2000/svg" width="12.515" height="11.227" viewBox="0 0 12.515 11.227">
  <path id="lang" d="M8.1,10.825h4.01m-4.01,0L7.03,13.06M8.1,10.825,9.7,7.476c.129-.27.194-.4.282-.447a.28.28,0,0,1,.243,0c.088.043.153.178.282.447l1.6,3.348m0,0,1.069,2.236M2,4.118H5.353m0,0H7.31m-1.956,0V3M7.31,4.118h1.4m-1.4,0A10.084,10.084,0,0,1,5.446,8.524m1.025.624a5.251,5.251,0,0,1-1.025-.624m0,0A5.735,5.735,0,0,1,3.677,6.353M5.446,8.524A9.666,9.666,0,0,1,2,11.383" transform="translate(-1.33 -2.5)" fill="none" stroke="#000" stroke-linecap="round" stroke-linejoin="round" stroke-width="1"/>
</svg>
