<svg id="locate" xmlns="http://www.w3.org/2000/svg" width="18.26" height="18.26" viewBox="0 0 18.26 18.26">
  <path id="Path_459" data-name="Path 459" d="M103.846,376h-4.28L96,380.494h11.412Zm0,0" transform="translate(-92.576 -362.591)" fill="#eafaff"/>
  <path id="Path_460" data-name="Path 460" d="M319.067,376H316l3.566,4.494h3.067Zm0,0" transform="translate(-304.73 -362.591)" fill="#96c8ef"/>
  <path id="Path_461" data-name="Path 461" d="M111.349,25.3,106.9,18.318a5.35,5.35,0,1,1,8.9,0L111.349,25.3Zm2.672-8.171a3.21,3.21,0,1,0-2.672,1.431A3.187,3.187,0,0,0,114.021,17.128Zm0,0" transform="translate(-102.219 -9.643)" fill="#ff523d"/>
  <path id="Path_462" data-name="Path 462" d="M13.566,376,10,380.494h3.067L16.633,376Zm0,0" transform="translate(-9.643 -362.591)" fill="#96c8ef"/>
  <path id="Path_463" data-name="Path 463" d="M306.357,260a.357.357,0,1,0,.357.357A.357.357,0,0,0,306.357,260Zm0,0" transform="translate(-295.087 -250.727)"/>
  <path id="Path_464" data-name="Path 464" d="M3.644,13.188.078,17.681a.357.357,0,0,0,.279.578H17.9a.357.357,0,0,0,.279-.578l-3.566-4.494a.356.356,0,0,0-.279-.135H11.213L13.88,8.869a5.706,5.706,0,1,0-9.5,0l2.667,4.183H3.924a.357.357,0,0,0-.279.135ZM2.313,16.013H4.469L3.252,17.546H1.1ZM7.5,13.766,8.48,15.3H5.946l1.217-1.534Zm3.256,0H11.1L12.315,15.3H9.781Zm2.123,2.247L14.1,17.546H4.163L5.38,16.013Zm2.128,1.534-1.217-1.534h2.157l1.217,1.534Zm.373-2.247H13.226l-1.217-1.534h2.157ZM4.976,8.476a4.993,4.993,0,1,1,8.309,0l0,.006-4.15,6.51L4.98,8.483l0-.006Zm1.276,5.289L5.035,15.3H2.879L4.1,13.766Zm0,0" transform="translate(-0.001 0)"/>
  <path id="Path_465" data-name="Path 465" d="M159.566,67.133A3.566,3.566,0,1,0,156,63.566,3.567,3.567,0,0,0,159.566,67.133Zm0-6.419a2.853,2.853,0,1,1-2.853,2.853A2.856,2.856,0,0,1,159.566,60.713Zm0,0" transform="translate(-150.437 -57.86)"/>
  <path id="Path_466" data-name="Path 466" d="M247.855,292.739a.357.357,0,0,0-.49.121l-1.318,2.187a.357.357,0,1,0,.611.368l1.318-2.187A.357.357,0,0,0,247.855,292.739Zm0,0" transform="translate(-237.223 -282.249)"/>
</svg>
