<svg xmlns="http://www.w3.org/2000/svg" width="165.699" height="21.019" viewBox="0 0 165.699 21.019">
  <g id="logo_ccsfa" transform="translate(-54.131 -24.072)">
    <path id="Path_35315" data-name="Path 35315" d="M-82.868-4.537a4.614,4.614,0,0,1,.618-2.379,4.4,4.4,0,0,1,1.677-1.645,4.68,4.68,0,0,1,2.321-.592,4.714,4.714,0,0,1,2.567.708,4.034,4.034,0,0,1,1.632,2.009h-1.781A2.388,2.388,0,0,0-76.81-7.5a2.893,2.893,0,0,0-1.443-.351,3.154,3.154,0,0,0-1.6.4,2.8,2.8,0,0,0-1.1,1.157,3.717,3.717,0,0,0-.4,1.755,3.717,3.717,0,0,0,.4,1.755,2.848,2.848,0,0,0,1.1,1.164,3.114,3.114,0,0,0,1.6.41A2.893,2.893,0,0,0-76.81-1.56a2.388,2.388,0,0,0,.975-1.066h1.781a4,4,0,0,1-1.632,2,4.747,4.747,0,0,1-2.567.7A4.669,4.669,0,0,1-80.58-.514a4.41,4.41,0,0,1-1.67-1.644A4.614,4.614,0,0,1-82.868-4.537Zm13.962-4.5v5.759a2.054,2.054,0,0,0,.539,1.547,2.074,2.074,0,0,0,1.5.52,2.093,2.093,0,0,0,1.514-.52,2.053,2.053,0,0,0,.54-1.547V-9.035h1.482V-3.3A3.456,3.456,0,0,1-63.81-1.43,2.985,2.985,0,0,1-65.1-.286a4.152,4.152,0,0,1-1.781.377,4.109,4.109,0,0,1-1.774-.377A2.913,2.913,0,0,1-69.92-1.43,3.53,3.53,0,0,1-70.388-3.3V-9.035ZM-56.478.091a4.046,4.046,0,0,1-1.638-.319,2.688,2.688,0,0,1-1.144-.9A2.3,2.3,0,0,1-59.676-2.5h1.586a1.432,1.432,0,0,0,.461.962,1.636,1.636,0,0,0,1.151.377,1.772,1.772,0,0,0,1.2-.371,1.2,1.2,0,0,0,.429-.956,1.043,1.043,0,0,0-.266-.741,1.783,1.783,0,0,0-.663-.442A10,10,0,0,0-56.881-4a10.292,10.292,0,0,1-1.437-.474,2.374,2.374,0,0,1-.943-.748,2.16,2.16,0,0,1-.39-1.352,2.4,2.4,0,0,1,.39-1.365,2.491,2.491,0,0,1,1.092-.9,3.968,3.968,0,0,1,1.625-.312,3.386,3.386,0,0,1,2.152.656,2.422,2.422,0,0,1,.93,1.8H-55.1a1.187,1.187,0,0,0-.468-.845A1.73,1.73,0,0,0-56.7-7.891a1.6,1.6,0,0,0-1.04.325,1.132,1.132,0,0,0-.4.936.95.95,0,0,0,.253.683,1.79,1.79,0,0,0,.644.423,9.99,9.99,0,0,0,1.066.338,11.129,11.129,0,0,1,1.463.494,2.434,2.434,0,0,1,.962.761,2.186,2.186,0,0,1,.4,1.372,2.466,2.466,0,0,1-.37,1.3,2.673,2.673,0,0,1-1.079.982A3.558,3.558,0,0,1-56.478.091Zm12.662-9.126v1.209h-2.4V0H-47.7V-7.826h-2.418V-9.035ZM-36.25.091A4.68,4.68,0,0,1-38.571-.5a4.383,4.383,0,0,1-1.677-1.651,4.649,4.649,0,0,1-.618-2.385,4.614,4.614,0,0,1,.618-2.379,4.4,4.4,0,0,1,1.677-1.645,4.68,4.68,0,0,1,2.32-.592,4.706,4.706,0,0,1,2.333.592,4.35,4.35,0,0,1,1.671,1.645,4.653,4.653,0,0,1,.611,2.379,4.688,4.688,0,0,1-.611,2.385A4.337,4.337,0,0,1-33.917-.5,4.706,4.706,0,0,1-36.25.091Zm0-1.287a3.114,3.114,0,0,0,1.6-.41,2.839,2.839,0,0,0,1.1-1.17,3.757,3.757,0,0,0,.4-1.762,3.717,3.717,0,0,0-.4-1.755,2.8,2.8,0,0,0-1.1-1.157,3.154,3.154,0,0,0-1.6-.4,3.154,3.154,0,0,0-1.6.4,2.8,2.8,0,0,0-1.1,1.157,3.717,3.717,0,0,0-.4,1.755,3.757,3.757,0,0,0,.4,1.762,2.839,2.839,0,0,0,1.1,1.17A3.114,3.114,0,0,0-36.25-1.2Zm17.537-7.839V0H-20.2V-6.188L-22.951,0h-1.027l-2.769-6.188V0h-1.482V-9.035h1.6l3.172,7.085L-20.3-9.035Zm5.382,1.2v2.652h3.12v1.209h-3.12v2.769h3.51V0h-4.992V-9.048h4.992v1.209ZM-1.358,0l-2.08-3.614H-4.569V0H-6.051V-9.035h3.12a3.879,3.879,0,0,1,1.761.364A2.525,2.525,0,0,1-.091-7.7,2.653,2.653,0,0,1,.267-6.331,2.705,2.705,0,0,1-.247-4.726a2.606,2.606,0,0,1-1.58.982L.41,0ZM-4.569-4.8h1.638a1.718,1.718,0,0,0,1.254-.416,1.5,1.5,0,0,0,.423-1.118,1.445,1.445,0,0,0-.416-1.1,1.768,1.768,0,0,0-1.261-.4H-4.569Zm13.52.26a4.614,4.614,0,0,1,.618-2.379,4.4,4.4,0,0,1,1.677-1.645,4.68,4.68,0,0,1,2.321-.592,4.714,4.714,0,0,1,2.567.708,4.034,4.034,0,0,1,1.632,2.009H15.984A2.388,2.388,0,0,0,15.009-7.5a2.893,2.893,0,0,0-1.443-.351,3.154,3.154,0,0,0-1.6.4,2.8,2.8,0,0,0-1.1,1.157,3.717,3.717,0,0,0-.4,1.755,3.717,3.717,0,0,0,.4,1.755,2.848,2.848,0,0,0,1.1,1.164,3.114,3.114,0,0,0,1.6.41,2.893,2.893,0,0,0,1.443-.351,2.388,2.388,0,0,0,.975-1.066h1.781a4,4,0,0,1-1.632,2,4.747,4.747,0,0,1-2.567.7,4.669,4.669,0,0,1-2.327-.592,4.41,4.41,0,0,1-1.67-1.644A4.614,4.614,0,0,1,8.951-4.537ZM25.565.091A4.68,4.68,0,0,1,23.244-.5a4.383,4.383,0,0,1-1.677-1.651,4.649,4.649,0,0,1-.617-2.385,4.614,4.614,0,0,1,.617-2.379,4.4,4.4,0,0,1,1.677-1.645,4.68,4.68,0,0,1,2.321-.592,4.706,4.706,0,0,1,2.333.592,4.35,4.35,0,0,1,1.67,1.645,4.653,4.653,0,0,1,.611,2.379,4.688,4.688,0,0,1-.611,2.385A4.337,4.337,0,0,1,27.9-.5,4.706,4.706,0,0,1,25.565.091Zm0-1.287a3.114,3.114,0,0,0,1.6-.41,2.839,2.839,0,0,0,1.1-1.17,3.757,3.757,0,0,0,.4-1.762,3.717,3.717,0,0,0-.4-1.755,2.8,2.8,0,0,0-1.1-1.157,3.154,3.154,0,0,0-1.6-.4,3.154,3.154,0,0,0-1.6.4,2.8,2.8,0,0,0-1.1,1.157,3.717,3.717,0,0,0-.4,1.755,3.757,3.757,0,0,0,.4,1.762,2.839,2.839,0,0,0,1.1,1.17A3.114,3.114,0,0,0,25.565-1.2ZM41.009,0H39.527L35.068-6.747V0H33.586V-9.048h1.482l4.459,6.734V-9.048h1.482ZM52.332,0H50.85L46.391-6.747V0H44.909V-9.048h1.482L50.85-2.314V-9.048h1.482Zm5.382-7.839v2.652h3.12v1.209h-3.12v2.769h3.51V0H56.232V-9.048h4.992v1.209Zm6.786,3.3a4.614,4.614,0,0,1,.618-2.379,4.4,4.4,0,0,1,1.677-1.645,4.68,4.68,0,0,1,2.321-.592,4.714,4.714,0,0,1,2.567.708,4.034,4.034,0,0,1,1.632,2.009H71.533A2.388,2.388,0,0,0,70.558-7.5a2.893,2.893,0,0,0-1.443-.351,3.154,3.154,0,0,0-1.6.4,2.8,2.8,0,0,0-1.1,1.157,3.717,3.717,0,0,0-.4,1.755,3.717,3.717,0,0,0,.4,1.755,2.848,2.848,0,0,0,1.1,1.164,3.114,3.114,0,0,0,1.6.41,2.893,2.893,0,0,0,1.443-.351,2.388,2.388,0,0,0,.975-1.066h1.781a4,4,0,0,1-1.632,2,4.747,4.747,0,0,1-2.567.7,4.669,4.669,0,0,1-2.327-.592,4.41,4.41,0,0,1-1.67-1.644A4.614,4.614,0,0,1,64.5-4.537Zm18.33-4.5v1.209H80.424V0H78.942V-7.826H76.524V-9.035Z" transform="translate(137 45)"/>
    <path id="Path_35316" data-name="Path 35316" d="M-22.435-4.865a2.963,2.963,0,0,1,1.361.3,2.128,2.128,0,0,1,.9.854,2.569,2.569,0,0,1,.319,1.3,2.511,2.511,0,0,1-.319,1.288,2.1,2.1,0,0,1-.9.837A3.023,3.023,0,0,1-22.435,0h-1.589V-4.865Zm0,4.214a1.756,1.756,0,0,0,1.309-.462,1.776,1.776,0,0,0,.455-1.3,1.837,1.837,0,0,0-.455-1.323,1.726,1.726,0,0,0-1.309-.476h-.791V-.651Zm5.222-4.214V0h-.8V-4.865Zm5.621,1.4a1.286,1.286,0,0,0-.525-.549,1.581,1.581,0,0,0-.777-.186,1.7,1.7,0,0,0-.861.217,1.521,1.521,0,0,0-.592.616,1.929,1.929,0,0,0-.214.924,1.95,1.95,0,0,0,.214.928,1.515,1.515,0,0,0,.592.62,1.7,1.7,0,0,0,.861.217,1.523,1.523,0,0,0,1.057-.364,1.582,1.582,0,0,0,.5-.987h-1.827v-.637h2.681v.623A2.4,2.4,0,0,1-10.888-1a2.394,2.394,0,0,1-.847.76,2.386,2.386,0,0,1-1.158.284,2.514,2.514,0,0,1-1.253-.319,2.375,2.375,0,0,1-.9-.886,2.485,2.485,0,0,1-.333-1.281,2.485,2.485,0,0,1,.333-1.281,2.367,2.367,0,0,1,.9-.885,2.52,2.52,0,0,1,1.25-.319,2.538,2.538,0,0,1,1.382.382,2.172,2.172,0,0,1,.878,1.082Zm3.738-1.4V0h-.8V-4.865Zm5.243,0v.651h-1.3V0h-.8V-4.214h-1.3v-.651ZM.847.049A2.179,2.179,0,0,1-.035-.123,1.447,1.447,0,0,1-.651-.609a1.235,1.235,0,0,1-.224-.735h.854a.771.771,0,0,0,.249.518.881.881,0,0,0,.62.2.954.954,0,0,0,.644-.2.649.649,0,0,0,.231-.515.562.562,0,0,0-.144-.4.96.96,0,0,0-.357-.238A5.384,5.384,0,0,0,.63-2.156a5.542,5.542,0,0,1-.773-.255,1.278,1.278,0,0,1-.508-.4,1.163,1.163,0,0,1-.21-.728,1.294,1.294,0,0,1,.21-.735A1.341,1.341,0,0,1-.063-4.76a2.136,2.136,0,0,1,.875-.168,1.823,1.823,0,0,1,1.158.354,1.3,1.3,0,0,1,.5.969H1.589a.639.639,0,0,0-.252-.455.932.932,0,0,0-.609-.189.864.864,0,0,0-.56.175.61.61,0,0,0-.217.5A.512.512,0,0,0,.088-3.2a.964.964,0,0,0,.346.227,5.379,5.379,0,0,0,.574.182,5.992,5.992,0,0,1,.788.266,1.311,1.311,0,0,1,.518.41,1.177,1.177,0,0,1,.213.738,1.328,1.328,0,0,1-.2.7,1.439,1.439,0,0,1-.581.529A1.916,1.916,0,0,1,.847.049Zm11.018,0a2.179,2.179,0,0,1-.882-.172,1.447,1.447,0,0,1-.616-.487,1.236,1.236,0,0,1-.224-.735H11a.771.771,0,0,0,.248.518.881.881,0,0,0,.62.2.954.954,0,0,0,.644-.2.649.649,0,0,0,.231-.515.562.562,0,0,0-.144-.4.96.96,0,0,0-.357-.238,5.384,5.384,0,0,0-.592-.182,5.542,5.542,0,0,1-.774-.255,1.278,1.278,0,0,1-.507-.4,1.163,1.163,0,0,1-.21-.728,1.294,1.294,0,0,1,.21-.735,1.341,1.341,0,0,1,.588-.483,2.136,2.136,0,0,1,.875-.168,1.823,1.823,0,0,1,1.158.354,1.3,1.3,0,0,1,.5.969h-.882a.639.639,0,0,0-.252-.455.932.932,0,0,0-.609-.189.864.864,0,0,0-.56.175.61.61,0,0,0-.217.5.512.512,0,0,0,.136.368.964.964,0,0,0,.347.227,5.379,5.379,0,0,0,.574.182,5.992,5.992,0,0,1,.788.266,1.311,1.311,0,0,1,.518.41,1.177,1.177,0,0,1,.214.738,1.328,1.328,0,0,1-.2.7,1.439,1.439,0,0,1-.581.529A1.916,1.916,0,0,1,11.865.049ZM18.4-4.865v.651H16.338v1.435h1.61v.651h-1.61V0h-.8V-4.865ZM23.128-.994H21.091L20.741,0h-.833l1.743-4.872h.924L24.318,0h-.84ZM22.9-1.645l-.791-2.261-.8,2.261Z" transform="translate(79 29)"/>
  </g>
</svg>
