<svg xmlns="http://www.w3.org/2000/svg" xmlns:xlink="http://www.w3.org/1999/xlink" width="178.999" height="61.063" viewBox="0 0 178.999 61.063">
  <defs>
    <linearGradient id="linear-gradient" y1="0.764" x2="1" y2="0.144" gradientUnits="objectBoundingBox">
      <stop offset="0" stop-color="#0b94db"/>
      <stop offset="0.326" stop-color="#aeb7ba"/>
      <stop offset="0.649" stop-color="#f9b210"/>
      <stop offset="1" stop-color="#fb741a"/>
    </linearGradient>
    <filter id="Path_1720" x="0" y="4.374" width="105.149" height="37.627" filterUnits="userSpaceOnUse">
      <feOffset dy="0.5" input="SourceAlpha"/>
      <feGaussianBlur stdDeviation="0.5" result="blur"/>
      <feFlood flood-color="#636363" flood-opacity="0.161"/>
      <feComposite operator="in" in2="blur"/>
      <feComposite in="SourceGraphic"/>
    </filter>
    <filter id="Path_1720-2" x="0" y="4.374" width="105.149" height="37.627" filterUnits="userSpaceOnUse">
      <feOffset dy="3" input="SourceAlpha"/>
      <feGaussianBlur stdDeviation="3" result="blur-2"/>
      <feFlood flood-color="#6e6e6e" flood-opacity="0.161" result="color"/>
      <feComposite operator="out" in="SourceGraphic" in2="blur-2"/>
      <feComposite operator="in" in="color"/>
      <feComposite operator="in" in2="SourceGraphic"/>
    </filter>
  </defs>
  <g id="logo_cc" transform="translate(-90.501 -221.937)">
    <text id="Customer_Connect" data-name="Customer Connect" transform="translate(180 278)" font-size="13" font-family="Poppins-Medium, Poppins" font-weight="500" letter-spacing="0.2em"><tspan x="-88.225" y="0">CUSTOMER CONNECT</tspan></text>
    <g id="Group_1835" data-name="Group 1835" transform="translate(70.471 209.991)">
      <g data-type="innerShadowGroup">
        <g transform="matrix(1, 0, 0, 1, 20.03, 11.95)" filter="url(#Path_1720)">
          <path id="Path_1720-3" data-name="Path 1720" d="M-51.25-26.5h-7.789V-4.443h7.789c7.119,0,11.748-4.329,11.748-11C-39.5-22.139-44.132-26.5-51.25-26.5ZM-54.57-8.2V-22.771h3.16c4.693,0,7.342,2.749,7.342,7.331S-46.717-8.2-51.41-8.2Zm18.419,3.76h4.469V-21.95h-4.469Zm2.267-19.592a2.628,2.628,0,0,0,2.745-2.591,2.628,2.628,0,0,0-2.745-2.591,2.609,2.609,0,0,0-2.745,2.591A2.609,2.609,0,0,0-33.884-24.035Zm5.459,10.776c0,5.467,3.575,9.1,8.076,9.1a7,7,0,0,0,5.842-2.876v2.718c0,3.255-1.915,4.645-4.373,4.645-2.235,0-3.895-1.043-4.341-2.623h-4.437c.447,4.013,3.926,6.478,8.906,6.478,5.81,0,8.747-3.76,8.747-8.5V-21.95h-4.5v2.5a6.943,6.943,0,0,0-5.842-2.781C-24.85-22.234-28.426-18.726-28.426-13.26Zm13.918.063c0,3.318-2.235,5.151-4.693,5.151-2.394,0-4.661-1.9-4.661-5.214s2.267-5.088,4.661-5.088C-16.742-18.347-14.507-16.514-14.507-13.2Zm8.874,8.753h4.469V-21.95H-5.633Zm2.267-19.592A2.628,2.628,0,0,0-.621-26.626a2.628,2.628,0,0,0-2.745-2.591,2.609,2.609,0,0,0-2.745,2.591A2.609,2.609,0,0,0-3.366-24.035Zm5.593-1.892h6.9V-4.443h5.194V-25.927h6.9v-4.15H2.226ZM43.11-11.862c0-9.034-13.282-6.17-13.282-11.311,0-2.093,1.521-3.085,3.562-3.011,2.226.037,3.6,1.359,3.71,3.048h5.713c-.334-4.627-3.97-7.308-9.275-7.308-5.342,0-9.126,2.791-9.126,7.418-.037,9.291,13.319,5.949,13.319,11.495,0,1.836-1.447,3.122-3.9,3.122-2.411,0-3.784-1.359-3.933-3.415H24.337c.074,4.848,4.229,7.639,9.609,7.639C39.845-4.186,43.11-7.822,43.11-11.862Z" transform="translate(60.54 35.82)" fill="url(#linear-gradient)"/>
        </g>
        <g transform="matrix(1, 0, 0, 1, 20.03, 11.95)" filter="url(#Path_1720-2)">
          <path id="Path_1720-4" data-name="Path 1720" d="M-51.25-26.5h-7.789V-4.443h7.789c7.119,0,11.748-4.329,11.748-11C-39.5-22.139-44.132-26.5-51.25-26.5ZM-54.57-8.2V-22.771h3.16c4.693,0,7.342,2.749,7.342,7.331S-46.717-8.2-51.41-8.2Zm18.419,3.76h4.469V-21.95h-4.469Zm2.267-19.592a2.628,2.628,0,0,0,2.745-2.591,2.628,2.628,0,0,0-2.745-2.591,2.609,2.609,0,0,0-2.745,2.591A2.609,2.609,0,0,0-33.884-24.035Zm5.459,10.776c0,5.467,3.575,9.1,8.076,9.1a7,7,0,0,0,5.842-2.876v2.718c0,3.255-1.915,4.645-4.373,4.645-2.235,0-3.895-1.043-4.341-2.623h-4.437c.447,4.013,3.926,6.478,8.906,6.478,5.81,0,8.747-3.76,8.747-8.5V-21.95h-4.5v2.5a6.943,6.943,0,0,0-5.842-2.781C-24.85-22.234-28.426-18.726-28.426-13.26Zm13.918.063c0,3.318-2.235,5.151-4.693,5.151-2.394,0-4.661-1.9-4.661-5.214s2.267-5.088,4.661-5.088C-16.742-18.347-14.507-16.514-14.507-13.2Zm8.874,8.753h4.469V-21.95H-5.633Zm2.267-19.592A2.628,2.628,0,0,0-.621-26.626a2.628,2.628,0,0,0-2.745-2.591,2.609,2.609,0,0,0-2.745,2.591A2.609,2.609,0,0,0-3.366-24.035Zm5.593-1.892h6.9V-4.443h5.194V-25.927h6.9v-4.15H2.226ZM43.11-11.862c0-9.034-13.282-6.17-13.282-11.311,0-2.093,1.521-3.085,3.562-3.011,2.226.037,3.6,1.359,3.71,3.048h5.713c-.334-4.627-3.97-7.308-9.275-7.308-5.342,0-9.126,2.791-9.126,7.418-.037,9.291,13.319,5.949,13.319,11.495,0,1.836-1.447,3.122-3.9,3.122-2.411,0-3.784-1.359-3.933-3.415H24.337c.074,4.848,4.229,7.639,9.609,7.639C39.845-4.186,43.11-7.822,43.11-11.862Z" transform="translate(60.54 35.82)" fill="#fff"/>
        </g>
      </g>
      <text id="SFA" transform="translate(170.029 42.945)" fill="#4d4d4d" font-size="33" font-family="SFProDisplay-Regular, SF Pro Display"><tspan x="-28.11" y="0">SFA</tspan></text>
      <line id="Line_160" data-name="Line 160" y2="27.67" transform="translate(132.867 16.099)" fill="none" stroke="#b7b7b7" stroke-linecap="round" stroke-width="1"/>
    </g>
    <line id="Line_161" data-name="Line 161" x2="27.5" transform="translate(92 261.5)" fill="none" stroke="#505050" stroke-linecap="round" stroke-width="0.5"/>
    <line id="Line_162" data-name="Line 162" x2="123.5" transform="translate(145 261.5)" fill="none" stroke="#505050" stroke-linecap="round" stroke-width="0.5"/>
  </g>
</svg>
