<svg id="logout" xmlns="http://www.w3.org/2000/svg" width="12.459" height="12.459" viewBox="0 0 12.459 12.459">
  <path id="Path_35261" data-name="Path 35261" d="M9.561,17.514A5.08,5.08,0,0,1,6.32,8.538.534.534,0,1,1,7,9.358a4,4,0,1,0,5.093,0,.528.528,0,0,1-.2-.506.536.536,0,0,1,.88-.319,5.067,5.067,0,0,1-3.216,8.978Z" transform="translate(-3.332 -6.223)"/>
  <path id="Path_35262" data-name="Path 35262" d="M22.475,9.951a.534.534,0,0,1-.535-.535V5.035a.535.535,0,0,1,1.069,0V9.416A.534.534,0,0,1,22.475,9.951Z" transform="translate(-16.245 -3.332)"/>
  <path id="Path_35263" data-name="Path 35263" d="M0,0H12.459V12.459H0Z" transform="translate(0)" fill="none"/>
</svg>
