<svg id="mail" xmlns="http://www.w3.org/2000/svg" width="11.318" height="8.613" viewBox="0 0 11.318 8.613">
  <g id="Group_778" data-name="Group 778">
    <path id="Path_471" data-name="Path 471" d="M9.936,57.75H1.384A1.385,1.385,0,0,0,0,59.134v5.845a1.385,1.385,0,0,0,1.384,1.384h8.55a1.385,1.385,0,0,0,1.384-1.384V59.136A1.384,1.384,0,0,0,9.936,57.75Zm.752,7.229a.753.753,0,0,1-.752.752H1.384a.753.753,0,0,1-.752-.752V59.136a.753.753,0,0,1,.752-.752h8.55a.753.753,0,0,1,.752.752v5.843Z" transform="translate(0 -57.75)"/>
    <path id="Path_472" data-name="Path 472" d="M61.585,111.938l2.768-2.482a.317.317,0,0,0-.424-.471l-3.817,3.426-.745-.665s0,0,0-.007a.469.469,0,0,0-.052-.044l-3.03-2.712a.317.317,0,1,0-.422.473l2.8,2.5-2.789,2.611a.317.317,0,0,0-.014.447.323.323,0,0,0,.232.1.317.317,0,0,0,.215-.084l2.831-2.649.768.686a.315.315,0,0,0,.422,0l.789-.707,2.815,2.674a.317.317,0,0,0,.447-.012.317.317,0,0,0-.012-.447Z" transform="translate(-54.447 -107.705)"/>
  </g>
</svg>
