<svg id="notification" xmlns="http://www.w3.org/2000/svg" width="22" height="22" viewBox="0 0 22 22">
  <path id="Path_35246" data-name="Path 35246" d="M20.878,18.813H7.609a1.609,1.609,0,0,1-1.476-.9,1.511,1.511,0,0,1,.2-1.615l.212-.257c.947-1.144,1.519-1.835,1.523-5.071A6.577,6.577,0,0,1,9.252,6.882,5.608,5.608,0,0,1,11.66,5.114l0,0a.125.125,0,0,0,.035-.029,3.159,3.159,0,0,1,.877-1.419A2.444,2.444,0,0,1,14.241,3a2.747,2.747,0,0,1,2.547,2.084.134.134,0,0,0,.036.031,5.617,5.617,0,0,1,2.408,1.768,6.57,6.57,0,0,1,1.192,4.083c0,3.234.569,3.925,1.513,5.069l.211.257a1.506,1.506,0,0,1,.2,1.613A1.6,1.6,0,0,1,20.878,18.813Zm-8.7-12.426c-1.278.527-2.744,1.524-2.744,4.579a11.064,11.064,0,0,1-.513,3.851,6.905,6.905,0,0,1-1.326,2.1l-.205.249a.138.138,0,0,0-.02.156.234.234,0,0,0,.235.12H20.878a.228.228,0,0,0,.229-.119.134.134,0,0,0-.021-.153l0,0-.207-.252a6.9,6.9,0,0,1-1.319-2.1,11.064,11.064,0,0,1-.507-3.848c0-3.055-1.47-4.052-2.751-4.58a1.45,1.45,0,0,1-.822-.89v0a1.412,1.412,0,0,0-1.233-1.115,1.422,1.422,0,0,0-1.228,1.113l0,.007A1.445,1.445,0,0,1,12.182,6.386Z" transform="translate(-3.241 -1.625)" fill="#413434"/>
  <path id="Path_35247" data-name="Path 35247" d="M19.938,39.313A3.441,3.441,0,0,1,16.5,35.875v-.687a.688.688,0,0,1,1.375,0v.688a2.063,2.063,0,0,0,4.125,0v-.687a.688.688,0,0,1,1.375,0v.688A3.441,3.441,0,0,1,19.938,39.313Z" transform="translate(-8.938 -18.688)" fill="#413434"/>
  <path id="Path_35248" data-name="Path 35248" d="M0,0H22V22H0Z" fill="none"/>
</svg>
