<svg id="ongoing" xmlns="http://www.w3.org/2000/svg" width="9.422" height="9.832" viewBox="0 0 9.422 9.832">
  <path id="Path_1800" data-name="Path 1800" d="M7.916,4.56A.484.484,0,0,1,7.4,4.048V2.512a.512.512,0,1,1,1.024,0V4.048A.484.484,0,0,1,7.916,4.56Zm-1.331.307a.567.567,0,0,0,.2-.717L6.072,2.922a.567.567,0,0,0-.717-.2.567.567,0,0,0-.2.717l.717,1.229a.538.538,0,0,0,.461.256A.384.384,0,0,0,6.585,4.868ZM5.56,5.738a.518.518,0,0,0-.2-.717L4.28,4.407a.527.527,0,0,0-.512.922l1.075.614a.462.462,0,0,0,.256.051C5.3,5.994,5.509,5.943,5.56,5.738Zm-.41,1.383a.484.484,0,0,0-.512-.512H3.512a.512.512,0,0,0,0,1.024H4.639A.513.513,0,0,0,5.151,7.121Z" transform="translate(-3 -2)" fill="#fbcb5a"/>
  <path id="Path_1801" data-name="Path 1801" d="M11.01,5.012a.512.512,0,1,1-1.024,0A.484.484,0,0,1,10.5,4.5.513.513,0,0,1,11.01,5.012Zm-5.94,5.94.819-.512a.527.527,0,0,0-.512-.922l-.819.512a.567.567,0,0,0-.2.717A.538.538,0,0,0,4.814,11C4.916,11.055,4.967,11,5.07,10.952ZM6.4,12.54a.462.462,0,0,1-.256-.051.567.567,0,0,1-.2-.717l.41-.717a.527.527,0,1,1,.922.512l-.41.717A.611.611,0,0,1,6.4,12.54Zm2.151.512a.484.484,0,0,1-.512-.512v-.717a.512.512,0,1,1,1.024,0v.717A.513.513,0,0,1,8.552,13.052Zm2.1-.666a.611.611,0,0,1-.461-.256l-.307-.461a.527.527,0,1,1,.922-.512l.307.461a.518.518,0,0,1-.2.717A.557.557,0,0,1,10.651,12.386ZM12.034,10.9a.462.462,0,0,1-.256-.051l-.358-.2a.527.527,0,0,1,.512-.922l.358.2a.567.567,0,0,1,.2.717A.538.538,0,0,1,12.034,10.9Zm.512-2.048H12.29a.512.512,0,0,1,0-1.024h.256a.484.484,0,0,1,.512.512A.513.513,0,0,1,12.546,8.853Zm-.768-1.895a.611.611,0,0,1-.461-.256.518.518,0,0,1,.2-.717l.1-.051a.527.527,0,1,1,.512.922l-.1.051A2.216,2.216,0,0,1,11.778,6.958Z" transform="translate(-3.636 -3.22)" fill="#fbcb5a" opacity="0.8"/>
</svg>
