<svg id="orders" xmlns="http://www.w3.org/2000/svg" width="24" height="24" viewBox="0 0 24 24">
  <path id="Path_35310" data-name="Path 35310" d="M23.708,9.447a.215.215,0,0,1,0-.079.165.165,0,0,1,0-.069V9.21l-.059-.148h0a.475.475,0,0,0-.088-.109l-.088-.079h-.049l-3.85-2.462h0L15.939,4.137a.781.781,0,0,0-.283-.148h-.078a.788.788,0,0,0-.264,0h-.1a1.076,1.076,0,0,0-.322.129l-7.3,4.6-.088.069-.088.079-.1.069-.049.059h0l-.059.148v.148a.671.671,0,0,0,0,.2v8.632a.992.992,0,0,0,.459.841L15,23.548h0l.147.059h.078a.812.812,0,0,0,.508,0h.078l.147-.059h0l7.27-4.519a.992.992,0,0,0,.459-.841V9.556A.543.543,0,0,0,23.708,9.447Zm-8.3-3.313,1.739,1.088-5.463,3.421L9.939,9.556Zm-.977,14.832L9.059,17.644V11.326l5.375,3.362Zm.977-8.019L13.545,11.81l5.463-3.431,1.876,1.177Zm6.352,4.667L16.388,21V14.688l5.375-3.362Z" transform="translate(-3.408 -1.881)" fill="#79bc8b"/>
  <path id="Path_35311" data-name="Path 35311" d="M0,0H24V24H0Z" fill="none"/>
</svg>
