<svg xmlns="http://www.w3.org/2000/svg" xmlns:xlink="http://www.w3.org/1999/xlink" width="34.814" height="13.895" viewBox="0 0 34.814 13.895">
  <defs>
    <linearGradient id="linear-gradient" y1="0.764" x2="1" y2="0.144" gradientUnits="objectBoundingBox">
      <stop offset="0" stop-color="#0b94db"/>
      <stop offset="0.326" stop-color="#aeb7ba"/>
      <stop offset="0.649" stop-color="#f9b210"/>
      <stop offset="1" stop-color="#fb741a"/>
    </linearGradient>
    <filter id="Path_838" x="0" y="0" width="34.814" height="13.895" filterUnits="userSpaceOnUse">
      <feOffset dy="0.5" input="SourceAlpha"/>
      <feGaussianBlur stdDeviation="0.5" result="blur"/>
      <feFlood flood-color="#636363" flood-opacity="0.161"/>
      <feComposite operator="in" in2="blur"/>
      <feComposite in="SourceGraphic"/>
    </filter>
  </defs>
  <g transform="matrix(1, 0, 0, 1, 0, 0)" filter="url(#Path_838)">
    <path id="Path_838-2" data-name="Path 838" d="M-56.614-29.2h-2.426v6.94h2.426a3.344,3.344,0,0,0,3.659-3.46A3.354,3.354,0,0,0-56.614-29.2Zm-1.034,5.757V-28.03h.984a2.1,2.1,0,0,1,2.287,2.307,2.076,2.076,0,0,1-2.287,2.277Zm5.737,1.183h1.392v-5.508h-1.392Zm.706-6.164a.822.822,0,0,0,.855-.815.822.822,0,0,0-.855-.815.816.816,0,0,0-.855.815A.816.816,0,0,0-51.2-28.428Zm1.7,3.39a2.615,2.615,0,0,0,2.515,2.863,2.172,2.172,0,0,0,1.819-.9v.855a1.288,1.288,0,0,1-1.362,1.462,1.3,1.3,0,0,1-1.352-.825h-1.382c.139,1.263,1.223,2.038,2.774,2.038a2.517,2.517,0,0,0,2.724-2.674v-5.548h-1.4v.785a2.155,2.155,0,0,0-1.819-.875A2.579,2.579,0,0,0-49.5-25.037Zm4.335.02A1.483,1.483,0,0,1-46.632-23.4a1.505,1.505,0,0,1-1.452-1.64,1.469,1.469,0,0,1,1.452-1.6A1.483,1.483,0,0,1-45.17-25.017Zm2.764,2.754h1.392v-5.508h-1.392Zm.706-6.164a.822.822,0,0,0,.855-.815.822.822,0,0,0-.855-.815.816.816,0,0,0-.855.815A.816.816,0,0,0-41.7-28.428Zm1.742-.6h2.149v6.759h1.618v-6.759h2.149v-1.306h-5.916ZM-27.225-24.6c0-2.842-4.137-1.941-4.137-3.559,0-.659.474-.971,1.109-.947a1.065,1.065,0,0,1,1.155.959h1.779c-.1-1.456-1.236-2.3-2.889-2.3s-2.842.878-2.842,2.334c-.012,2.923,4.148,1.872,4.148,3.617,0,.578-.451.982-1.213.982a1.107,1.107,0,0,1-1.225-1.075h-1.733c.023,1.525,1.317,2.4,2.993,2.4C-28.242-22.183-27.225-23.326-27.225-24.6Z" transform="translate(60.54 31.44)" fill="url(#linear-gradient)"/>
  </g>
</svg>
