<svg id="phone" xmlns="http://www.w3.org/2000/svg" width="12.212" height="12.212" viewBox="0 0 12.212 12.212">
  <g id="Group_781" data-name="Group 781">
    <path id="Path_485" data-name="Path 485" d="M12.211,9.842A1.806,1.806,0,0,0,11.657,8.6,4.437,4.437,0,0,0,9.9,7.433a1.966,1.966,0,0,0-2.019.573l0,0-.645.64A9.665,9.665,0,0,1,5.2,7.076l-.063-.063A9.666,9.666,0,0,1,3.565,4.98l.64-.645,0,0A1.966,1.966,0,0,0,4.78,2.313,4.437,4.437,0,0,0,3.613.557,1.815,1.815,0,0,0,1.094.466L1.08.478,1.062.5A3.871,3.871,0,0,0,0,3.331a9.059,9.059,0,0,0,2.883,6,11.627,11.627,0,0,0,1.144,1,.477.477,0,0,0,.581-.757,10.682,10.682,0,0,1-1.05-.913,8.1,8.1,0,0,1-2.6-5.33,2.947,2.947,0,0,1,.774-2.147l0,0a.858.858,0,0,1,1.2.043C4.162,2.5,4.072,3.1,3.527,3.664l-.884.891a.477.477,0,0,0-.1.53,9.639,9.639,0,0,0,1.918,2.6l.063.063a9.638,9.638,0,0,0,2.6,1.918.477.477,0,0,0,.53-.1l.891-.884c.56-.546,1.164-.635,2.445.6a.858.858,0,0,1,.043,1.2l0,0a2.938,2.938,0,0,1-2.125.774H8.888A6.186,6.186,0,0,1,6.534,10.7a.477.477,0,0,0-.378.876,7.037,7.037,0,0,0,2.727.635H8.91a3.862,3.862,0,0,0,2.808-1.062l.018-.019.012-.014A1.806,1.806,0,0,0,12.211,9.842Z" transform="translate(0 -0.002)"/>
  </g>
</svg>
