<svg id="profile" xmlns="http://www.w3.org/2000/svg" width="11.591" height="11.039" viewBox="0 0 11.591 11.039">
  <path id="Path_469" data-name="Path 469" d="M133.089,19.61a3.1,3.1,0,1,0-3.1-3.1A3.1,3.1,0,0,0,133.089,19.61Zm0-5.386a2.284,2.284,0,1,1-2.284,2.284A2.291,2.291,0,0,1,133.089,14.224Z" transform="translate(-127.313 -13.415)"/>
  <path id="Path_470" data-name="Path 470" d="M.409,345.227H11.182a.406.406,0,0,0,.409-.409A3.9,3.9,0,0,0,7.7,340.926H3.892A3.9,3.9,0,0,0,0,344.818.406.406,0,0,0,.409,345.227Zm3.483-3.483H7.7a3.072,3.072,0,0,1,3.045,2.665H.847A3.08,3.08,0,0,1,3.892,341.744Z" transform="translate(0 -334.188)"/>
</svg>
