<svg xmlns="http://www.w3.org/2000/svg" width="11.318" height="11.318" viewBox="0 0 11.318 11.318">
  <g id="search" transform="translate(0.5 0.5)">
    <g id="Group_10726" data-name="Group 10726" transform="translate(-0.5 -0.5)">
      <path id="Path_24601" data-name="Path 24601" d="M10.76,10.441,7.466,7.147a4.3,4.3,0,1,0-.319.319l3.294,3.294a.226.226,0,1,0,.319-.319ZM4.285,8.119A3.834,3.834,0,1,1,8.119,4.285,3.839,3.839,0,0,1,4.285,8.119Z" transform="translate(0.246 0.246)" fill="#fff"/>
      <path id="Path_24601_-_Outline" data-name="Path 24601 - Outline" d="M10.347,10.818a.468.468,0,0,1-.333-.138L6.88,7.547a4.548,4.548,0,1,1,.667-.667l3.133,3.133a.472.472,0,0,1-.333.805ZM4.031.443A3.588,3.588,0,1,0,7.619,4.031,3.592,3.592,0,0,0,4.031.443Z" transform="translate(0.5 0.5)" fill="#413434"/>
    </g>
  </g>
</svg>
