<svg id="sendmail" xmlns="http://www.w3.org/2000/svg" width="17.8" height="19.119" viewBox="0 0 17.8 19.119">
  <path id="Path_473" data-name="Path 473" d="M19.8,7.765,12.537.665a2.347,2.347,0,0,0-3.274,0L2,7.765V19.118H19.8Z" transform="translate(-2 0.001)" fill="#2a55c5"/>
  <path id="Path_474" data-name="Path 474" d="M26.177,15.4,23.87,13.1a.326.326,0,0,0-.107-.072.331.331,0,0,0-.359.072L21.1,15.4a.33.33,0,1,0,.466.466l1.745-1.745v5.467a.33.33,0,1,0,.659,0V14.126l1.745,1.745a.33.33,0,0,0,.466-.466Z" transform="translate(-14.737 -8.715)" fill="#fff"/>
  <path id="Path_475" data-name="Path 475" d="M19.8,45.333l-7.435-5.758a2.683,2.683,0,0,0-3.023-.009C6.788,41.3,2,45.333,2,45.333Z" transform="translate(-2 -26.214)" fill="#86d7fb"/>
  <path id="Path_476" data-name="Path 476" d="M9.634,29.274H9.582L2,24V35.208s4.788-4.032,7.342-5.767A2.678,2.678,0,0,1,9.634,29.274Z" transform="translate(-2 -16.089)" fill="#31b6f3"/>
  <path id="Path_477" data-name="Path 477" d="M32.683,29.274h-.156a2.682,2.682,0,0,1,.3.176l7.435,5.758V24Z" transform="translate(-22.464 -16.089)" fill="#167cd8"/>
</svg>
