<svg xmlns="http://www.w3.org/2000/svg" xmlns:xlink="http://www.w3.org/1999/xlink" width="24" height="24" viewBox="0 0 24 24">
  <defs>
    <clipPath id="clip-path">
      <rect id="Rectangle_6709" data-name="Rectangle 6709" width="24" height="24" transform="translate(206 591)" fill="none"/>
    </clipPath>
  </defs>
  <g id="smp" transform="translate(-206 -591)" clip-path="url(#clip-path)">
    <g id="pending" transform="translate(209 594)">
      <rect id="Rectangle_1069" data-name="Rectangle 1069" width="18.417" height="18.417" rx="9.208" transform="translate(0 0)" fill="none" stroke="#e6bf68" stroke-width="3"/>
      <path id="Path_35304" data-name="Path 35304" d="M2.813-2.8h-.3L1.828-9.141q-.047-.414-.047-.578a1.21,1.21,0,0,1,.258-.82.8.8,0,0,1,.625-.3.8.8,0,0,1,.629.3,1.341,1.341,0,0,1,.254.891,4.664,4.664,0,0,1-.039.523ZM3.523-.648a.836.836,0,0,1-.254.613.836.836,0,0,1-.613.254.827.827,0,0,1-.605-.254A.836.836,0,0,1,1.8-.648a.823.823,0,0,1,.254-.609.833.833,0,0,1,.605-.25.842.842,0,0,1,.613.25A.823.823,0,0,1,3.523-.648Z" transform="translate(6.416 14.333)" fill="#e6bf68"/>
    </g>
  </g>
</svg>
