<svg id="whatsapp" xmlns="http://www.w3.org/2000/svg" width="21.386" height="21.385" viewBox="0 0 21.386 21.385">
  <path id="Path_510" data-name="Path 510" d="M18.285,3.073A10.819,10.819,0,0,0,10.733,0,10.615,10.615,0,0,0,1.511,15.895L0,21.385l5.645-1.472A11.194,11.194,0,0,0,10.738,21.2,10.612,10.612,0,0,0,18.271,3.108Z" transform="translate(0)" fill="#eceff1"/>
  <path id="Path_511" data-name="Path 511" d="M10.984,19.6h-.02a8.978,8.978,0,0,1-4.825-1.42L2.8,19.043l.9-3.248-.213-.334a8.832,8.832,0,1,1,7.5,4.135Z" transform="translate(-0.232 -0.214)" fill="#4caf50"/>
  <path id="Path_512" data-name="Path 512" d="M16.251,13.44l-.008.067c-.268-.134-1.575-.773-1.818-.861-.546-.2-.392-.032-1.441,1.169-.156.174-.311.187-.576.067a7.232,7.232,0,0,1-2.141-1.323,8.084,8.084,0,0,1-1.479-1.844c-.261-.451.285-.515.782-1.456a.49.49,0,0,0-.022-.467c-.067-.134-.6-1.444-.822-1.966s-.434-.454-.6-.454a1.326,1.326,0,0,0-1.219.307c-1.438,1.581-1.076,3.211.155,4.945,2.418,3.165,3.707,3.748,6.063,4.557a3.687,3.687,0,0,0,1.675.108,2.742,2.742,0,0,0,1.8-1.271,2.206,2.206,0,0,0,.16-1.27c-.066-.12-.241-.187-.508-.307Z" transform="translate(-0.651 -0.692)" fill="#fafafa"/>
</svg>
