<svg id="whatsapp_1" xmlns="http://www.w3.org/2000/svg" width="13.19" height="13.19" viewBox="0 0 13.19 13.19">
  <path id="Path_513" data-name="Path 513" d="M11.316,1.873A6.354,6.354,0,0,0,6.793,0h0A6.4,6.4,0,0,0,1.109,9.33L.034,12.4a.593.593,0,0,0,.557.789.6.6,0,0,0,.2-.034L3.86,12.081A6.4,6.4,0,0,0,11.316,1.873Zm-.547,8.5a5.625,5.625,0,0,1-6.615.989.6.6,0,0,0-.475-.037L.888,12.3l.977-2.79a.6.6,0,0,0-.037-.475A5.623,5.623,0,0,1,6.793.774h0a5.623,5.623,0,0,1,3.976,9.6Zm0,0" transform="translate(0)"/>
  <path id="Path_514" data-name="Path 514" d="M133.237,117.822a.756.756,0,0,0-1.067,0l-.322.322a4.685,4.685,0,0,1-1.881-1.881l.322-.322a.755.755,0,0,0,0-1.067l-.867-.867a.756.756,0,0,0-1.067,0l-.694.694c-.4.4-.417,1.081-.056,1.924a8.444,8.444,0,0,0,3.882,3.882,2.8,2.8,0,0,0,1.08.257,1.15,1.15,0,0,0,.844-.313l.694-.694h0a.755.755,0,0,0,0-1.067Zm-.374,2.081c-.113.113-.462.153-1.072-.108a7.691,7.691,0,0,1-3.476-3.476c-.261-.61-.222-.959-.108-1.072l.68-.68.84.841-.4.4a.59.59,0,0,0-.109.687,5.457,5.457,0,0,0,2.4,2.4.59.59,0,0,0,.688-.109l.4-.4.841.841Zm0,0" transform="translate(-124.067 -110.854)"/>
</svg>
